<?xml version="1.0" encoding="UTF-8" standalone="no"?>
<svg
   height="380"
   viewBox="0 0 740 380"
   width="740"
   version="1.1"
   id="svg106"
   sodipodi:docname="wang-clean.svg"
   inkscape:version="1.2.1 (9c6d41e410, 2022-07-14, custom)"
   inkscape:export-filename="wang.png"
   inkscape:export-xdpi="200"
   inkscape:export-ydpi="200"
   xmlns:inkscape="http://www.inkscape.org/namespaces/inkscape"
   xmlns:sodipodi="http://sodipodi.sourceforge.net/DTD/sodipodi-0.dtd"
   xmlns="http://www.w3.org/2000/svg"
   xmlns:svg="http://www.w3.org/2000/svg">
  <defs
     id="defs110" />
  <sodipodi:namedview
     id="namedview108"
     pagecolor="#ffffff"
     bordercolor="#666666"
     borderopacity="1.0"
     inkscape:showpageshadow="2"
     inkscape:pageopacity="0.0"
     inkscape:pagecheckerboard="0"
     inkscape:deskcolor="#d1d1d1"
     showgrid="false"
     showguides="true"
     inkscape:zoom="1.6024759"
     inkscape:cx="403.75022"
     inkscape:cy="195.94678"
     inkscape:window-width="1920"
     inkscape:window-height="1132"
     inkscape:window-x="0"
     inkscape:window-y="0"
     inkscape:window-maximized="1"
     inkscape:current-layer="svg106" />
  <g
     id="g1033">
    <rect
       fill="#ffffff"
       height="100"
       width="100"
       x="262"
       y="142"
       id="rect10"
       style="fill:#0bb4ff;fill-opacity:1" />
    <path
       d="m 262,142 50,50 50,-50"
       fill="#ff0000"
       id="path12"
       style="fill:#0bb4ff;fill-opacity:1" />
    <path
       d="m 362,142 -50,50 50,50"
       fill="#00ff00"
       id="path14"
       style="fill:#50e991;fill-opacity:1" />
    <path
       d="m 262,242 50,-50 50,50"
       fill="#0000ff"
       id="path16"
       style="fill:#0bb4ff;fill-opacity:1" />
    <rect
       fill="none"
       height="100"
       stroke="#000000"
       stroke-width="4"
       width="100"
       x="262"
       y="142"
       id="rect18" />
  </g>
  <g
     id="g1026">
    <rect
       fill="#ffffff"
       height="100"
       width="100"
       x="382"
       y="142"
       id="rect10-6"
       style="fill:#50e991;fill-opacity:1" />
    <path
       d="m 382,142 50,50 50,-50"
       fill="#ff0000"
       id="path12-5"
       style="fill:#c678dd;fill-opacity:1" />
    <path
       d="m 482,142 -50,50 50,50"
       fill="#00ff00"
       id="path14-6"
       style="fill:#ffffff" />
    <path
       d="m 382,242 50,-50 50,50"
       fill="#0000ff"
       id="path16-9"
       style="fill:#0bb4ff;fill-opacity:1" />
    <rect
       fill="none"
       height="100"
       stroke="#000000"
       stroke-width="4"
       width="100"
       x="382"
       y="142"
       id="rect18-3" />
  </g>
  <g
     id="g991">
    <rect
       fill="#ffffff"
       height="100"
       width="100"
       x="502"
       y="22.000004"
       id="rect10-5"
       style="fill:#282c34;fill-opacity:1" />
    <path
       d="m 502,22 50,50 50,-50"
       fill="#ff0000"
       id="path12-2"
       style="fill:#ffd42a;fill-opacity:1" />
    <path
       d="m 602,22 -50,50 50,50"
       fill="#00ff00"
       id="path14-5"
       style="fill:#ffd42a;fill-opacity:1" />
    <path
       d="m 502,122 50,-50 50,50"
       fill="#0000ff"
       id="path16-4"
       style="fill:#ff2a2a;fill-opacity:1" />
    <rect
       fill="none"
       height="100"
       stroke="#000000"
       stroke-width="4"
       width="100"
       x="502"
       y="22.000004"
       id="rect18-7" />
  </g>
  <g
     id="g984">
    <rect
       fill="#ffffff"
       height="100"
       width="100"
       x="382"
       y="22.000004"
       id="rect10-4"
       style="fill:#50e991;fill-opacity:1" />
    <path
       d="m 382,22 50,50 50,-50"
       fill="#ff0000"
       id="path12-3"
       style="fill:#282c34;fill-opacity:1" />
    <path
       d="m 482,22 -50,50 50,50"
       fill="#00ff00"
       id="path14-0"
       style="fill:#c678dd;fill-opacity:1" />
    <path
       d="m 382,122 50,-50 50,50"
       fill="#0000ff"
       id="path16-7"
       style="fill:#0bb4ff;fill-opacity:1" />
    <rect
       fill="none"
       height="100"
       stroke="#000000"
       stroke-width="4"
       width="100"
       x="382"
       y="22.000004"
       id="rect18-8" />
  </g>
  <g
     id="g998">
    <rect
       fill="#ffffff"
       height="100"
       width="100"
       x="622"
       y="22.000004"
       id="rect10-8"
       style="fill:#ffd42a;fill-opacity:1" />
    <path
       d="m 622,22 50,50 50,-50"
       fill="#ff0000"
       id="path12-8"
       style="fill:#0bb4ff;fill-opacity:1" />
    <path
       d="m 722,22 -50,50 50,50"
       fill="#00ff00"
       id="path14-4"
       style="fill:#50e991;fill-opacity:1" />
    <path
       d="m 622,122 50,-50 50,50"
       fill="#0000ff"
       id="path16-3"
       style="fill:#0bb4ff;fill-opacity:1" />
    <rect
       fill="none"
       height="100"
       stroke="#000000"
       stroke-width="4"
       width="100"
       x="622"
       y="22.000004"
       id="rect18-1" />
  </g>
  <g
     id="g17562">
    <rect
       fill="#ffffff"
       height="100"
       width="100"
       x="142"
       y="22.000004"
       id="rect10-2"
       style="fill:#ffffff;fill-opacity:1" />
    <path
       d="m 142,22 50,50 50,-50"
       fill="#ff0000"
       id="path12-0"
       style="fill:#ffffff;fill-opacity:1" />
    <path
       d="m 242,22 -50,50 50,50"
       fill="#00ff00"
       id="path14-68"
       style="fill:#ffffff" />
    <path
       d="m 142,122 50,-50 50,50"
       fill="#0000ff"
       id="path16-92"
       style="fill:#282c34;fill-opacity:1" />
    <rect
       fill="none"
       height="100"
       stroke="#000000"
       stroke-width="4"
       width="100"
       x="142"
       y="22.000004"
       id="rect18-6" />
  </g>
  <g
     id="g977">
    <rect
       fill="#ffffff"
       height="100"
       width="100"
       x="262"
       y="22.000004"
       id="rect10-9"
       style="fill:#282c34;fill-opacity:1" />
    <path
       d="m 262,22 50,50 50,-50"
       fill="#ff0000"
       id="path12-50"
       style="fill:#282c34;fill-opacity:1" />
    <path
       d="m 362,22 -50,50 50,50"
       fill="#00ff00"
       id="path14-48"
       style="fill:#50e991;fill-opacity:1" />
    <path
       d="m 262,122 50,-50 50,50"
       fill="#0000ff"
       id="path16-71"
       style="fill:#ffd42a;fill-opacity:1" />
    <rect
       fill="none"
       height="100"
       stroke="#000000"
       stroke-width="4"
       width="100"
       x="262"
       y="22.000004"
       id="rect18-72" />
  </g>
  <g
     id="g17569">
    <rect
       fill="#ffffff"
       height="100"
       width="100"
       x="22"
       y="22.000004"
       id="rect10-26"
       style="fill:#ffffff;fill-opacity:1" />
    <path
       d="M 22,22 72,72 122,22"
       fill="#ff0000"
       id="path12-1"
       style="fill:#ffffff" />
    <path
       d="m 122,22 -50,50 50,50"
       fill="#00ff00"
       id="path14-06"
       style="fill:#ffffff" />
    <path
       d="m 22,122 50,-50 50,50"
       fill="#0000ff"
       id="path16-1"
       style="fill:#ffffff" />
    <rect
       fill="none"
       height="100"
       stroke="#000000"
       stroke-width="4"
       width="100"
       x="22"
       y="22.000004"
       id="rect18-5" />
  </g>
  <g
     id="g17548">
    <rect
       fill="#ffffff"
       height="100"
       width="100"
       x="22"
       y="142"
       id="rect10-49"
       style="fill:#ffffff;fill-opacity:1" />
    <path
       d="m 22,142 50,50 50,-50"
       fill="#ff0000"
       id="path12-09"
       style="fill:#ffffff;fill-opacity:1" />
    <path
       d="m 122,142 -50,50 50,50"
       fill="#00ff00"
       id="path14-1"
       style="fill:#282c34;fill-opacity:1" />
    <path
       d="m 22,242 50,-50 50,50"
       fill="#0000ff"
       id="path16-77"
       style="fill:#ffffff" />
    <rect
       fill="none"
       height="100"
       stroke="#000000"
       stroke-width="4"
       width="100"
       x="22"
       y="142"
       id="rect18-11" />
  </g>
  <g
     id="g1054">
    <rect
       fill="#ffffff"
       height="100"
       width="100"
       x="22"
       y="262"
       id="rect10-97"
       style="fill:#0bb4ff;fill-opacity:1" />
    <path
       d="m 22,262 50,50 50,-50"
       fill="#ff0000"
       id="path12-7"
       style="fill:#ffffff" />
    <path
       d="m 122,262 -50,50 50,50"
       fill="#00ff00"
       id="path14-67"
       style="fill:#0bb4ff;fill-opacity:1" />
    <path
       d="m 22,362 50,-50 50,50"
       fill="#0000ff"
       id="path16-36"
       style="fill:#ffffff" />
    <rect
       fill="none"
       height="100"
       stroke="#000000"
       stroke-width="4"
       width="100"
       x="22"
       y="262"
       id="rect18-56" />
  </g>
  <g
     id="g1061">
    <rect
       fill="#ffffff"
       height="100"
       width="100"
       x="142"
       y="262"
       id="rect10-94"
       style="fill:#ffffff" />
    <path
       d="m 142,262 50,50 50,-50"
       fill="#ff0000"
       id="path12-81"
       style="fill:#0bb4ff;fill-opacity:1" />
    <path
       d="m 242,262 -50,50 50,50"
       fill="#00ff00"
       id="path14-2"
       style="fill:#ffffff" />
    <path
       d="m 142,362 50,-50 50,50"
       fill="#0000ff"
       id="path16-93"
       style="fill:#0bb4ff;fill-opacity:1" />
    <rect
       fill="none"
       height="100"
       stroke="#000000"
       stroke-width="4"
       width="100"
       x="142"
       y="262"
       id="rect18-9" />
  </g>
  <g
     id="g1068">
    <rect
       fill="#ffffff"
       height="100"
       width="100"
       x="262"
       y="262"
       id="rect10-59"
       style="fill:#ffffff" />
    <path
       d="m 262,262 50,50 50,-50"
       fill="#ff0000"
       id="path12-84"
       style="fill:#ffffff" />
    <path
       d="m 362,262 -50,50 50,50"
       fill="#00ff00"
       id="path14-8"
       style="fill:#50e991;fill-opacity:1" />
    <path
       d="m 262,362 50,-50 50,50"
       fill="#0000ff"
       id="path16-10"
       style="fill:#50e991;fill-opacity:1" />
    <rect
       fill="none"
       height="100"
       stroke="#000000"
       stroke-width="4"
       width="100"
       x="262"
       y="262"
       id="rect18-30" />
  </g>
  <g
     id="g1075">
    <rect
       fill="#ffffff"
       height="100"
       width="100"
       x="382"
       y="262"
       id="rect10-1"
       style="fill:#50e991;fill-opacity:1" />
    <path
       d="m 382,262 50,50 50,-50"
       fill="#ff0000"
       id="path12-78"
       style="fill:#50e991;fill-opacity:1" />
    <path
       d="m 482,262 -50,50 50,50"
       fill="#00ff00"
       id="path14-57"
       style="fill:#ffffff" />
    <path
       d="m 382,362 50,-50 50,50"
       fill="#0000ff"
       id="path16-41"
       style="fill:#ffffff" />
    <rect
       fill="none"
       height="100"
       stroke="#000000"
       stroke-width="4"
       width="100"
       x="382"
       y="262"
       id="rect18-85" />
  </g>
  <g
     id="g1192">
    <rect
       fill="#ffffff"
       height="100"
       width="100"
       x="502"
       y="262"
       id="rect10-53"
       style="fill:#ffffff" />
    <path
       d="m 502,262 50,50 50,-50"
       fill="#ff0000"
       id="path12-88"
       style="fill:#ff2a2a;fill-opacity:1" />
    <path
       d="m 602,262 -50,50 50,50"
       fill="#00ff00"
       id="path14-3"
       style="fill:#ff2a2a;fill-opacity:1" />
    <path
       d="m 502,362 50,-50 50,50"
       fill="#0000ff"
       id="path16-18"
       style="fill:#ffffff" />
    <rect
       fill="none"
       height="100"
       stroke="#000000"
       stroke-width="4"
       width="100"
       x="502"
       y="262"
       id="rect18-96" />
  </g>
  <g
     id="g1012">
    <rect
       fill="#ffffff"
       height="100"
       width="100"
       x="622"
       y="262"
       id="rect10-3"
       style="fill:#ff2a2a;fill-opacity:1" />
    <path
       d="m 622,262 50,50 50,-50"
       fill="#ff0000"
       id="path12-38"
       style="fill:#ffffff" />
    <path
       d="m 722,262 -50,50 50,50"
       fill="#00ff00"
       id="path14-60"
       style="fill:#ffffff" />
    <path
       d="m 622,362 50,-50 50,50"
       fill="#0000ff"
       id="path16-48"
       style="fill:#ff2a2a;fill-opacity:1" />
    <rect
       fill="none"
       height="100"
       stroke="#000000"
       stroke-width="4"
       width="100"
       x="622"
       y="262"
       id="rect18-88" />
  </g>
  <g
     id="g1005">
    <rect
       fill="#ffffff"
       height="100"
       width="100"
       x="622"
       y="142"
       id="rect10-64"
       style="fill:#c678dd;fill-opacity:1" />
    <path
       d="m 622,142 50,50 50,-50"
       fill="#ff0000"
       id="path12-30"
       style="fill:#282c34;fill-opacity:1" />
    <path
       d="m 722,142 -50,50 50,50"
       fill="#00ff00"
       id="path14-30"
       style="fill:#c678dd;fill-opacity:1" />
    <path
       d="m 622,242 50,-50 50,50"
       fill="#0000ff"
       id="path16-925"
       style="fill:#ffffff" />
    <rect
       fill="none"
       height="100"
       stroke="#000000"
       stroke-width="4"
       width="100"
       x="622"
       y="142"
       id="rect18-4" />
  </g>
  <g
     id="g1019">
    <rect
       fill="#ffffff"
       height="100"
       width="100"
       x="502"
       y="142"
       id="rect10-594"
       style="fill:#c678dd;fill-opacity:1" />
    <path
       d="m 502,142 50,50 50,-50"
       fill="#ff0000"
       id="path12-6"
       style="fill:#282c34;fill-opacity:1" />
    <path
       d="m 602,142 -50,50 50,50"
       fill="#00ff00"
       id="path14-9"
       style="fill:#c678dd;fill-opacity:1" />
    <path
       d="m 502,242 50,-50 50,50"
       fill="#0000ff"
       id="path16-2"
       style="fill:#c678dd;fill-opacity:1" />
    <rect
       fill="none"
       height="100"
       stroke="#000000"
       stroke-width="4"
       width="100"
       x="502"
       y="142"
       id="rect18-2" />
  </g>
  <g
     id="g17555">
    <rect
       fill="#ffffff"
       height="100"
       width="100"
       x="142"
       y="142"
       id="rect10-7"
       style="fill:#ff2a2a;fill-opacity:1" />
    <path
       d="m 142,142 50,50 50,-50"
       fill="#ff0000"
       id="path12-54"
       style="fill:#0bb4ff;fill-opacity:1" />
    <path
       d="m 242,142 -50,50 50,50"
       fill="#00ff00"
       id="path14-81"
       style="fill:#0bb4ff;fill-opacity:1" />
    <path
       d="m 142,242 50,-50 50,50"
       fill="#0000ff"
       id="path16-28"
       style="fill:#ff2a2a;fill-opacity:1" />
    <rect
       fill="none"
       height="100"
       stroke="#000000"
       stroke-width="4"
       width="100"
       x="142"
       y="142"
       id="rect18-93" />
  </g>
</svg>
