<?xml version="1.0" encoding="UTF-8" standalone="no"?>
<svg
   height="380"
   viewBox="0 0 800 380"
   width="800"
   version="1.1"
   id="svg106"
   sodipodi:docname="wang.svg"
   inkscape:version="1.2.1 (9c6d41e410, 2022-07-14, custom)"
   xmlns:inkscape="http://www.inkscape.org/namespaces/inkscape"
   xmlns:sodipodi="http://sodipodi.sourceforge.net/DTD/sodipodi-0.dtd"
   xmlns="http://www.w3.org/2000/svg"
   xmlns:svg="http://www.w3.org/2000/svg">
  <defs
     id="defs110" />
  <sodipodi:namedview
     id="namedview108"
     pagecolor="#ffffff"
     bordercolor="#666666"
     borderopacity="1.0"
     inkscape:showpageshadow="2"
     inkscape:pageopacity="0.0"
     inkscape:pagecheckerboard="0"
     inkscape:deskcolor="#d1d1d1"
     showgrid="false"
     showguides="true"
     inkscape:zoom="1.8131068"
     inkscape:cx="413.9304"
     inkscape:cy="189.17805"
     inkscape:window-width="1920"
     inkscape:window-height="1132"
     inkscape:window-x="0"
     inkscape:window-y="0"
     inkscape:window-maximized="1"
     inkscape:current-layer="svg106" />
  <rect
     fill="#ffffff"
     height="100"
     width="100"
     x="322"
     y="142"
     id="rect10" />
  <path
     d="m 322,142 50,50 50,-50"
     fill="#ff0000"
     id="path12"
     style="fill:#ffffff" />
  <path
     d="m 422,142 -50,50 50,50"
     fill="#00ff00"
     id="path14" />
  <path
     d="m 322,242 50,-50 50,50"
     fill="#0000ff"
     id="path16"
     style="fill:#008000" />
  <rect
     fill="none"
     height="100"
     stroke="#000000"
     stroke-width="4"
     width="100"
     x="322"
     y="142"
     id="rect18" />
  <rect
     fill="#ffffff"
     height="100"
     width="100"
     x="442"
     y="142"
     id="rect10-6"
     style="fill:#00ff00" />
  <path
     d="m 442,142 50,50 50,-50"
     fill="#ff0000"
     id="path12-5"
     style="fill:#008000" />
  <path
     d="m 542,142 -50,50 50,50"
     fill="#00ff00"
     id="path14-6"
     style="fill:#ffffff" />
  <path
     d="m 442,242 50,-50 50,50"
     fill="#0000ff"
     id="path16-9"
     style="fill:#ffffff" />
  <rect
     fill="none"
     height="100"
     stroke="#000000"
     stroke-width="4"
     width="100"
     x="442"
     y="142"
     id="rect18-3" />
  <rect
     fill="#ffffff"
     height="100"
     width="100"
     x="502"
     y="22.000004"
     id="rect10-5"
     style="fill:#00ff00" />
  <path
     d="m 502,22 50,50 50,-50"
     fill="#ff0000"
     id="path12-2"
     style="fill:#808080" />
  <path
     d="m 602,22 -50,50 50,50"
     fill="#00ff00"
     id="path14-5"
     style="fill:#00ffff" />
  <path
     d="m 502,122 50,-50 50,50"
     fill="#0000ff"
     id="path16-4"
     style="fill:#ff0000" />
  <rect
     fill="none"
     height="100"
     stroke="#000000"
     stroke-width="4"
     width="100"
     x="502"
     y="22.000004"
     id="rect18-7" />
  <rect
     fill="#ffffff"
     height="100"
     width="100"
     x="382"
     y="22.000004"
     id="rect10-4"
     style="fill:#808080" />
  <path
     d="m 382,22 50,50 50,-50"
     fill="#ff0000"
     id="path12-3"
     style="fill:#808080" />
  <path
     d="m 482,22 -50,50 50,50"
     fill="#00ff00"
     id="path14-0"
     style="fill:#00ff00" />
  <path
     d="m 382,122 50,-50 50,50"
     fill="#0000ff"
     id="path16-7"
     style="fill:#ffff00" />
  <rect
     fill="none"
     height="100"
     stroke="#000000"
     stroke-width="4"
     width="100"
     x="382"
     y="22.000004"
     id="rect18-8" />
  <rect
     fill="#ffffff"
     height="100"
     width="100"
     x="622"
     y="22.000004"
     id="rect10-8"
     style="fill:#808080" />
  <path
     d="m 622,22 50,50 50,-50"
     fill="#ff0000"
     id="path12-8"
     style="fill:#ffff00" />
  <path
     d="m 722,22 -50,50 50,50"
     fill="#00ff00"
     id="path14-4"
     style="fill:#ff6600" />
  <path
     d="m 622,122 50,-50 50,50"
     fill="#0000ff"
     id="path16-3"
     style="fill:#ffffff" />
  <rect
     fill="none"
     height="100"
     stroke="#000000"
     stroke-width="4"
     width="100"
     x="622"
     y="22.000004"
     id="rect18-1" />
  <rect
     fill="#ffffff"
     height="100"
     width="100"
     x="142"
     y="22.000004"
     id="rect10-2"
     style="fill:#808080" />
  <path
     d="m 142,22 50,50 50,-50"
     fill="#ff0000"
     id="path12-0"
     style="fill:#ffffff" />
  <path
     d="m 242,22 -50,50 50,50"
     fill="#00ff00"
     id="path14-68"
     style="fill:#ffffff" />
  <path
     d="m 142,122 50,-50 50,50"
     fill="#0000ff"
     id="path16-92"
     style="fill:#ffffff" />
  <rect
     fill="none"
     height="100"
     stroke="#000000"
     stroke-width="4"
     width="100"
     x="142"
     y="22.000004"
     id="rect18-6" />
  <rect
     fill="#ffffff"
     height="100"
     width="100"
     x="262"
     y="22.000004"
     id="rect10-9" />
  <path
     d="m 262,22 50,50 50,-50"
     fill="#ff0000"
     id="path12-50"
     style="fill:#808080" />
  <path
     d="m 362,22 -50,50 50,50"
     fill="#00ff00"
     id="path14-48"
     style="fill:#ffffff" />
  <path
     d="m 262,122 50,-50 50,50"
     fill="#0000ff"
     id="path16-71"
     style="fill:#ffffff" />
  <rect
     fill="none"
     height="100"
     stroke="#000000"
     stroke-width="4"
     width="100"
     x="262"
     y="22.000004"
     id="rect18-72" />
  <rect
     fill="#ffffff"
     height="100"
     width="100"
     x="22"
     y="22.000004"
     id="rect10-26" />
  <path
     d="M 22,22 72,72 122,22"
     fill="#ff0000"
     id="path12-1"
     style="fill:#ffffff" />
  <path
     d="m 122,22 -50,50 50,50"
     fill="#00ff00"
     id="path14-06"
     style="fill:#ffffff" />
  <path
     d="m 22,122 50,-50 50,50"
     fill="#0000ff"
     id="path16-1"
     style="fill:#ffffff" />
  <rect
     fill="none"
     height="100"
     stroke="#000000"
     stroke-width="4"
     width="100"
     x="22"
     y="22.000004"
     id="rect18-5" />
  <rect
     fill="#ffffff"
     height="100"
     width="100"
     x="82"
     y="142"
     id="rect10-49"
     style="fill:#800080" />
  <path
     d="m 82,142 50,50 50,-50"
     fill="#ff0000"
     id="path12-09"
     style="fill:#ffffff" />
  <path
     d="m 182,142 -50,50 50,50"
     fill="#00ff00"
     id="path14-1"
     style="fill:#800080" />
  <path
     d="m 82,242 50,-50 50,50"
     fill="#0000ff"
     id="path16-77"
     style="fill:#ffffff" />
  <rect
     fill="none"
     height="100"
     stroke="#000000"
     stroke-width="4"
     width="100"
     x="82"
     y="142"
     id="rect18-11" />
  <rect
     fill="#ffffff"
     height="100"
     width="100"
     x="22"
     y="262"
     id="rect10-97"
     style="fill:#ffaaaa" />
  <path
     d="m 22,262 50,50 50,-50"
     fill="#ff0000"
     id="path12-7" />
  <path
     d="m 122,262 -50,50 50,50"
     fill="#00ff00"
     id="path14-67"
     style="fill:#800080" />
  <path
     d="m 22,362 50,-50 50,50"
     fill="#0000ff"
     id="path16-36"
     style="fill:#800000" />
  <rect
     fill="none"
     height="100"
     stroke="#000000"
     stroke-width="4"
     width="100"
     x="22"
     y="262"
     id="rect18-56" />
  <rect
     fill="#ffffff"
     height="100"
     width="100"
     x="142"
     y="262"
     id="rect10-94"
     style="fill:#800080" />
  <path
     d="m 142,262 50,50 50,-50"
     fill="#ff0000"
     id="path12-81" />
  <path
     d="m 242,262 -50,50 50,50"
     fill="#00ff00"
     id="path14-2" />
  <path
     d="m 142,362 50,-50 50,50"
     fill="#0000ff"
     id="path16-93"
     style="fill:#ff0000" />
  <rect
     fill="none"
     height="100"
     stroke="#000000"
     stroke-width="4"
     width="100"
     x="142"
     y="262"
     id="rect18-9" />
  <rect
     fill="#ffffff"
     height="100"
     width="100"
     x="262"
     y="263.27444"
     id="rect10-59"
     style="fill:#ff6600" />
  <path
     d="m 262,263.27444 50,50 50,-50"
     fill="#ff0000"
     id="path12-84"
     style="fill:#ff0000" />
  <path
     d="m 362,263.27444 -50,50 50,50"
     fill="#00ff00"
     id="path14-8"
     style="fill:#00ff00" />
  <path
     d="m 262,363.27444 50,-50 50,50"
     fill="#0000ff"
     id="path16-10"
     style="fill:#ff0000" />
  <rect
     fill="none"
     height="100"
     stroke="#000000"
     stroke-width="4"
     width="100"
     x="262"
     y="263.27444"
     id="rect18-30" />
  <rect
     fill="#ffffff"
     height="100"
     width="100"
     x="382"
     y="262"
     id="rect10-1"
     style="fill:#00ff00" />
  <path
     d="m 382,262 50,50 50,-50"
     fill="#ff0000"
     id="path12-78"
     style="fill:#808000" />
  <path
     d="m 482,262 -50,50 50,50"
     fill="#00ff00"
     id="path14-57"
     style="fill:#ffffff" />
  <path
     d="m 382,362 50,-50 50,50"
     fill="#0000ff"
     id="path16-41"
     style="fill:#ff0000" />
  <rect
     fill="none"
     height="100"
     stroke="#000000"
     stroke-width="4"
     width="100"
     x="382"
     y="262"
     id="rect18-85" />
  <rect
     fill="#ffffff"
     height="100"
     width="100"
     x="502"
     y="262"
     id="rect10-53"
     style="fill:#00ffff" />
  <path
     d="m 502,262 50,50 50,-50"
     fill="#ff0000"
     id="path12-88"
     style="fill:#808080" />
  <path
     d="m 602,262 -50,50 50,50"
     fill="#00ff00"
     id="path14-3"
     style="fill:#00ffff" />
  <path
     d="m 502,362 50,-50 50,50"
     fill="#0000ff"
     id="path16-18"
     style="fill:#808000" />
  <rect
     fill="none"
     height="100"
     stroke="#000000"
     stroke-width="4"
     width="100"
     x="502"
     y="262"
     id="rect18-96" />
  <rect
     fill="#ffffff"
     height="100"
     width="100"
     x="622"
     y="262"
     id="rect10-3"
     style="fill:#00ffff" />
  <path
     d="m 622,262 50,50 50,-50"
     fill="#ff0000"
     id="path12-38"
     style="fill:#808080" />
  <path
     d="m 722,262 -50,50 50,50"
     fill="#00ff00"
     id="path14-60"
     style="fill:#00ffff" />
  <path
     d="m 622,362 50,-50 50,50"
     fill="#0000ff"
     id="path16-48"
     style="fill:#ffffff" />
  <rect
     fill="none"
     height="100"
     stroke="#000000"
     stroke-width="4"
     width="100"
     x="622"
     y="262"
     id="rect18-88" />
  <rect
     fill="#ffffff"
     height="100"
     width="100"
     x="682"
     y="142"
     id="rect10-64"
     style="fill:#ffaaaa" />
  <path
     d="m 682,142 50,50 50,-50"
     fill="#ff0000"
     id="path12-30"
     style="fill:#ffffff" />
  <path
     d="m 782,142 -50,50 50,50"
     fill="#00ff00"
     id="path14-30"
     style="fill:#ffffff" />
  <path
     d="m 682,242 50,-50 50,50"
     fill="#0000ff"
     id="path16-925"
     style="fill:#800000" />
  <rect
     fill="none"
     height="100"
     stroke="#000000"
     stroke-width="4"
     width="100"
     x="682"
     y="142"
     id="rect18-4" />
  <rect
     fill="#ffffff"
     height="100"
     width="100"
     x="562"
     y="142"
     id="rect10-594" />
  <path
     d="m 562,142 50,50 50,-50"
     fill="#ff0000"
     id="path12-6"
     style="fill:#800000" />
  <path
     d="m 662,142 -50,50 50,50"
     fill="#00ff00"
     id="path14-9"
     style="fill:#ffaaaa" />
  <path
     d="m 562,242 50,-50 50,50"
     fill="#0000ff"
     id="path16-2"
     style="fill:#ffffff" />
  <rect
     fill="none"
     height="100"
     stroke="#000000"
     stroke-width="4"
     width="100"
     x="562"
     y="142"
     id="rect18-2" />
  <rect
     fill="#ffffff"
     height="100"
     width="100"
     x="202"
     y="142"
     id="rect10-7" />
  <path
     d="m 202,142 50,50 50,-50"
     fill="#ff0000"
     id="path12-54" />
  <path
     d="m 302,142 -50,50 50,50"
     fill="#00ff00"
     id="path14-81"
     style="fill:#ffffff" />
  <path
     d="m 202,242 50,-50 50,50"
     fill="#0000ff"
     id="path16-28"
     style="fill:#ff0000" />
  <rect
     fill="none"
     height="100"
     stroke="#000000"
     stroke-width="4"
     width="100"
     x="202"
     y="142"
     id="rect18-93" />
</svg>
